:SAMPLES-PER-SECOND 30
:FULLY-SPECIFIED
:DEGREES
434
root  -23.439 38.63 13.5823 -179.546 34.1024 179.968
RightUpLeg  -16.2238 -5.89325 -12.8513
RightLeg  33.0424 -10.1655 -7.32015
RightFoot  -2.44748 -1.48914 18.7191
RightToes  -5.8209e-011 0 -3.6325e-017
Spine  9.9121 -2.59937 -0.117113
Spine1  18.9705 -0.589273 -7.10309
HEad  -10.3462 18.8484 2.1834
LeftShoulder1  0.495833 1.16049 -14.2441
LeftArm  8.03621 15.3196 -52.6158
LeftForeArm  10.1258 -66.0584 -25.6887
LeftHand  -1.27996 -0.393423 25.5677
RightShoulder  0.207484 -2.02363 6.4447
RightArm  1.61424 -10.9149 69.0078
RightForeArm  40.6115 77.9374 70.7355
RightHand  -1.41544 1.60342 -23.4073
LeftUpLeg  -5.27019 -8.5907 9.82336
LeftLeg  22.4405 4.66624 2.51078
LeftFoot  -19.2671 -1.22208 -19.1421
LeftToes  -3.91115e-011 -2.2622e-010 9.51032e-012
435
root  -23.003 38.6247 13.901 179.971 30.5341 179.333
RightUpLeg  -13.6973 -1.15163 -15.6267
RightLeg  25.7449 -9.53362 -5.2287
RightFoot  -1.19859 -1.90949 21.1975
RightToes  -5.8209e-011 0 -3.6325e-017
Spine  10.9076 -2.71298 0.63046
Spine1  17.7911 -0.529473 -7.60328
HEad  -10.5286 15.8489 2.23419
LeftShoulder1  0.713567 0.0818133 -13.8829
LeftArm  8.47731 16.6908 -50.8672
LeftForeArm  8.41529 -64.0889 -23.3435
LeftHand  -1.29189 -0.564903 25.0556
RightShoulder  0.197816 -2.12467 6.82867
RightArm  2.10679 -10.1549 66.7039
RightForeArm  45.9684 78.2695 76.5282
RightHand  -1.30448 1.25171 -22.7247
LeftUpLeg  -5.69343 -8.34211 10.5963
LeftLeg  21.0949 1.30464 1.03779
LeftFoot  -18.7066 -1.17369 -19.783
LeftToes  -3.91115e-011 -2.2622e-010 9.51032e-012
436
root  -22.5331 38.2876 14.3145 179.938 27.9019 177.126
RightUpLeg  -14.5618 5.79117 -19.644
RightLeg  24.022 -4.36574 -2.28494
RightFoot  -3.35822 -1.89932 26.717
RightToes  -5.8209e-011 0 -3.6325e-017
Spine  10.8669 -2.14882 -0.576623
Spine1  16.5907 -0.105577 -7.58101
HEad  -10.5293 12.8772 2.34828
LeftShoulder1  0.793345 -0.293741 -13.939
LeftArm  8.3299 16.2492 -49.371
LeftForeArm  4.45082 -60.5309 -20.0541
LeftHand  -1.36213 -0.793239 25.437
RightShoulder  0.166445 -2.34591 6.89802
RightArm  2.38812 -8.42854 64.9566
RightForeArm  43.445 78.1365 74.5404
RightHand  -1.22884 0.922843 -22.5152
LeftUpLeg  -8.71452 -8.64638 10.0796
LeftLeg  22.7641 -0.904702 -0.0761772
LeftFoot  -19.3043 -1.27364 -19.7803
LeftToes  -3.91115e-011 -2.2622e-010 9.51032e-012
437
root  -22.0503 37.767 14.7886 -179.942 24.9182 176.219
RightUpLeg  -15.7057 9.68808 -21.2185
RightLeg  27.2873 0.135317 -0.148425
RightFoot  -9.67381 -0.521843 29.373
RightToes  -5.8209e-011 0 -3.6325e-017
Spine  12.1348 -1.88811 -1.06834
Spine1  14.8758 -0.1539 -6.95128
HEad  -10.7571 10.5317 2.89736
LeftShoulder1  0.838116 -0.437437 -14.3439
LeftArm  7.0083 15.4902 -47.8846
LeftForeArm  0.260419 -56.3593 -17.1021
LeftHand  -1.50384 -1.17556 26.3982
RightShoulder  0.132301 -2.59221 7.14067
RightArm  2.94314 -6.12482 63.6949
RightForeArm  32.3952 77.411 66.2834
RightHand  -1.18937 0.732029 -22.4655
LeftUpLeg  -12.5563 -9.27671 10.6775
LeftLeg  27.0431 -2.37331 -0.965425
LeftFoot  -20.5024 -1.44388 -19.3851
LeftToes  -3.91115e-011 -2.2622e-010 9.51032e-012
438
root  -21.589 37.1369 15.2683 -179.848 22.3327 176.464
RightUpLeg  -16.6932 9.09187 -20.2752
RightLeg  32.3477 0.504876 0.0631357
RightFoot  -16.7007 1.1975 27.7578
RightToes  -5.8209e-011 0 -3.6325e-017
Spine  14.1504 -1.72789 -0.883727
Spine1  13.2529 -0.35638 -5.76492
HEad  -11.5591 9.04489 3.64137
LeftShoulder1  0.99854 -1.12995 -14.6686
LeftArm  4.36755 15.7589 -46.7275
LeftForeArm  -2.55948 -52.1669 -14.7333
LeftHand  -1.77133 -1.75462 28.4839
RightShoulder  0.144024 -2.56651 8.06485
RightArm  3.98869 -3.74237 62.3001
RightForeArm  18.4771 76.2206 58.0214
RightHand  -1.17659 0.662952 -22.4766
LeftUpLeg  -16.3775 -8.64113 12.2254
LeftLeg  32.4856 -2.62584 -1.42301
LeftFoot  -21.4901 -1.55449 -18.805
LeftToes  -3.91115e-011 -2.2622e-010 9.51032e-012
439
root  -21.1695 36.3897 15.7081 179.76 20.6153 177.602
RightUpLeg  -17.9585 6.61835 -18.165
RightLeg  38.0624 -0.984451 -1.08624
RightFoot  -21.8499 2.19687 25.0817
RightToes  -5.8209e-011 0 -3.6325e-017
Spine  16.4171 -1.55964 -0.0727352
Spine1  12.5175 -0.388905 -4.58462
HEad  -12.8692 8.11422 3.97337
LeftShoulder1  1.17658 -1.93746 -14.7533
LeftArm  1.921 16.3558 -46.5235
LeftForeArm  -4.43162 -46.9488 -12.3315
LeftHand  -2.02503 -2.19409 30.6118
RightShoulder  0.224748 -2.12539 9.08387
RightArm  5.40398 -1.75726 61.1927
RightForeArm  7.26744 75.2005 53.3078
RightHand  -1.0822 0.237717 -22.2187
LeftUpLeg  -19.3923 -8.25645 14.4262
LeftLeg  38.3511 -1.77963 -1.11821
LeftFoot  -22.6716 -1.70347 -18.4005
LeftToes  -3.91115e-011 -2.2622e-010 9.51032e-012
440
root  -20.7666 35.5165 16.0646 178.75 18.9851 178.861
RightUpLeg  -19.5098 4.27867 -16.383
RightLeg  44.9694 -0.598414 -0.900515
RightFoot  -25.1561 2.78503 24.0438
RightToes  -5.8209e-011 0 -3.6325e-017
Spine  18.3466 -1.41641 0.628728
Spine1  12.9636 -0.423064 -3.46027
HEad  -14.3629 7.15912 3.9434
LeftShoulder1  1.25637 -2.22903 -15.0773
LeftArm  1.59092 15.9506 -46.9794
LeftForeArm  -6.82105 -39.9508 -9.79435
LeftHand  -2.05801 -2.19212 31.0708
RightShoulder  0.354688 -1.39015 9.56424
RightArm  7.10662 -0.58179 61.0723
RightForeArm  -0.625281 74.52 50.8335
RightHand  -0.884771 -0.621592 -21.4084
LeftUpLeg  -21.5726 -10.3206 16.7966
LeftLeg  43.8977 -1.23714 -0.877337
LeftFoot  -24.798 -2.13922 -19.1921
LeftToes  -3.91115e-011 -2.2622e-010 9.51032e-012
441
root  -20.2621 34.6964 16.2838 177.585 16.2694 179.162
RightUpLeg  -20.2019 2.06977 -15.7553
RightLeg  51.483 0.225378 -0.114566
RightFoot  -27.9847 3.43662 24.4621
RightToes  -5.8209e-011 0 -3.6325e-017
Spine  19.0981 -0.950248 0.0399044
Spine1  14.1407 -0.510475 -1.94687
HEad  -15.5638 5.33212 4.30246
LeftShoulder1  1.35526 -2.42415 -16.0971
LeftArm  3.75728 14.7431 -47.1922
LeftForeArm  -10.4912 -33.2517 -7.93087
LeftHand  -1.91572 -1.88333 30.1945
RightShoulder  0.530927 -0.443302 10.1264
RightArm  8.95164 -1.16448 61.333
RightForeArm  -6.58009 73.9955 49.0459
RightHand  -0.74115 -1.16245 -20.235
LeftUpLeg  -23.2888 -13.6726 18.4598
LeftLeg  47.571 -1.84078 -1.72545
LeftFoot  -27.0521 -2.83885 -21.5183
LeftToes  -3.91115e-011 -2.2622e-010 9.51032e-012
442
root  -19.5132 34.2968 16.3851 177.065 11.949 178.636
RightUpLeg  -19.3178 -1.11604 -15.4784
RightLeg  54.9196 -1.11681 -2.10759
RightFoot  -30.2931 3.95234 24.5817
RightToes  -5.8209e-011 0 -3.6325e-017
Spine  18.704 0.287385 -1.09228
Spine1  15.172 -0.054164 0.171983
HEad  -16.0043 1.31293 5.46402
LeftShoulder1  1.5731 -3.06903 -17.277
LeftArm  6.80315 13.3825 -47.4854
LeftForeArm  -13.9398 -29.614 -7.14485
LeftHand  -1.80727 -1.56275 29.8225
RightShoulder  0.803526 0.768338 11.7073
RightArm  10.3542 -4.72401 60.9252
RightForeArm  -10.5277 73.9689 49.457
RightHand  -0.700374 -1.15707 -19.094
LeftUpLeg  -24.675 -16.1468 19.6194
LeftLeg  47.5258 -3.40254 -3.51038
LeftFoot  -27.2475 -3.2518 -24.1495
LeftToes  -3.91115e-011 -2.2622e-010 9.51032e-012
443
root  -18.5438 34.5086 16.417 177.676 6.05116 178.295
RightUpLeg  -17.562 -6.6062 -14.724
RightLeg  54.7514 -2.31915 -3.93883
RightFoot  -30.4769 4.01071 24.6708
RightToes  -5.8209e-011 0 -3.6325e-017
Spine  17.8517 2.14875 -0.480667
Spine1  15.0937 1.49702 2.34217
HEad  -15.7095 -5.96779 7.07359
LeftShoulder1  1.75059 -3.73182 -17.5693
LeftArm  9.31544 11.5142 -49.4493
LeftForeArm  -14.1527 -29.0471 -7.01756
LeftHand  -1.85804 -1.5713 30.5728
RightShoulder  1.18434 2.10485 14.2735
RightArm  11.1378 -10.2038 60.1394
RightForeArm  -12.9334 74.5692 52.8526
RightHand  -0.644609 -1.30133 -18.2066
LeftUpLeg  -25.9268 -18.7556 21.2251
LeftLeg  43.1741 -5.64479 -5.20441
LeftFoot  -24.4776 -2.8529 -25.626
LeftToes  -3.91115e-011 -2.2622e-010 9.51032e-012
444
root  -17.4923 35.1493 16.4154 179.072 -0.760025 178.552
RightUpLeg  -15.7943 -14.6011 -14.0177
RightLeg  52.8518 0.922193 0.854158
RightFoot  -27.6149 3.6724 26.6836
RightToes  -5.8209e-011 0 -3.6325e-017
Spine  17.132 4.17313 3.05184
Spine1  13.5619 4.09745 3.27248
HEad  -15.3332 -15.9879 8.40637
LeftShoulder1  1.7479 -3.86869 -17.0345
LeftArm  11.7205 9.34009 -53.6595
LeftForeArm  -11.0825 -30.2043 -7.16306
LeftHand  -1.9967 -1.92471 31.2427
RightShoulder  1.557 3.15811 16.7753
RightArm  12.9682 -13.3314 59.7884
RightForeArm  -17.1073 74.7645 54.3626
RightHand  -0.669127 -1.17378 -18.3415
LeftUpLeg  -27.1541 -23.3063 23.7099
LeftLeg  35.5848 -6.53997 -4.70308
LeftFoot  -19.3483 -1.7536 -26.37
LeftToes  -3.91115e-011 -2.2622e-010 9.51032e-012
445
root  -16.4325 36.0096 16.4478 179.739 -6.86949 179.658
RightUpLeg  -12.985 -22.2409 -13.6371
RightLeg  50.2934 6.58566 8.07381
RightFoot  -22.0449 2.75269 30.3588
RightToes  -5.8209e-011 0 -3.6325e-017
Spine  17.905 5.85023 9.47124
Spine1  11.1336 7.42249 1.86316
HEad  -15.2925 -26.4881 8.40515
LeftShoulder1  1.70009 -3.77652 -16.6495
LeftArm  14.6677 8.77526 -58.3583
LeftForeArm  -8.36727 -32.8424 -7.72729
LeftHand  -2.07893 -2.23779 31.1967
RightShoulder  1.76387 3.80837 17.5895
RightArm  18.2848 -10.9579 59.456
RightForeArm  -23.0295 74.2982 52.1452
RightHand  -1.06668 0.448445 -20.9723
LeftUpLeg  -26.5899 -26.707 26.278
LeftLeg  26.4586 -2.23524 -1.04059
LeftFoot  -11.2825 0.0945287 -27.4878
LeftToes  -3.91115e-011 -2.2622e-010 9.51032e-012
446
root  -15.4096 36.8785 16.603 179.218 -11.2081 -179.344
RightUpLeg  -9.18363 -25.5064 -14.4889
RightLeg  46.171 6.98751 7.49701
RightFoot  -17.2074 1.51962 31.0161
RightToes  -5.8209e-011 0 -3.6325e-017
Spine  20.3519 6.69532 17.1099
Spine1  8.85685 10.7698 -1.58095
HEad  -14.6698 -35.1707 5.84571
LeftShoulder1  1.71669 -3.88926 -16.5072
LeftArm  18.3512 11.0192 -61.2869
LeftForeArm  -8.27719 -36.9835 -8.92316
LeftHand  -2.05777 -2.31122 30.6178
RightShoulder  1.77975 4.26904 16.2363
RightArm  24.911 -4.54473 58.8375
RightForeArm  -24.5226 74.6975 54.4298
RightHand  -1.83435 2.83455 -25.6982
LeftUpLeg  -23.2469 -21.3466 24.9999
LeftLeg  18.4334 5.46975 2.87732
LeftFoot  0.0435505 2.59082 -26.2059
LeftToes  -3.91115e-011 -2.2622e-010 9.51032e-012
